<?xml version="1.0" standalone="no"?>
<!DOCTYPE svg PUBLIC "-//W3C//DTD SVG 20010904//EN"
 "http://www.w3.org/TR/2001/REC-SVG-20010904/DTD/svg10.dtd">
<svg version="1.0" xmlns="http://www.w3.org/2000/svg"
 width="520.000000pt" height="520.000000pt" viewBox="0 0 520.000000 520.000000"
 preserveAspectRatio="xMidYMid meet">
<metadata>
Created by potrace 1.11, written by Peter Selinger 2001-2013
</metadata>
<g transform="translate(0.000000,520.000000) scale(0.100000,-0.100000)"
fill="#000000" stroke="none">
<path d="M2355 5069 c-285 -31 -573 -117 -837 -251 -240 -121 -429 -258 -624
-453 -194 -193 -347 -408 -470 -660 -83 -170 -130 -299 -173 -477 -55 -225
-66 -318 -66 -598 0 -195 5 -281 18 -365 23 -143 69 -330 113 -458 77 -223
241 -516 404 -722 78 -99 259 -280 363 -364 338 -273 768 -459 1212 -523 119
-17 541 -17 660 0 444 64 874 250 1212 523 104 84 285 265 363 364 163 206
327 499 404 722 44 128 90 315 113 458 13 84 18 170 18 365 0 195 -5 281 -18
365 -23 143 -69 330 -113 458 -77 223 -241 516 -404 722 -78 99 -259 280 -363
364 -329 266 -742 448 -1172 517 -121 19 -510 27 -640 13z m431 -410 c259 -25
490 -91 729 -208 413 -203 729 -521 930 -936 145 -297 209 -570 209 -885 0
-315 -64 -588 -209 -885 -201 -415 -517 -733 -930 -936 -250 -122 -479 -186
-756 -210 -468 -41 -1015 135 -1408 454 -229 186 -415 421 -546 692 -145 297
-209 570 -209 885 0 315 64 588 209 885 243 501 667 871 1201 1048 268 89 528
121 780 96z"/>
<path d="M2399 3525 c-2 -2 -35 -6 -74 -10 -38 -3 -72 -8 -75 -10 -3 -1 -27
-6 -54 -9 -27 -4 -52 -9 -55 -11 -3 -1 -23 -6 -44 -9 -22 -3 -59 -11 -83 -17
l-44 -11 0 -154 c0 -85 4 -154 8 -154 5 0 45 13 89 29 93 34 255 78 328 89 81
12 315 7 375 -7 165 -40 246 -135 257 -302 l6 -79 -34 -1 c-37 -1 -46 -2 -194
-13 -55 -5 -116 -10 -135 -11 -35 -3 -108 -11 -185 -21 -200 -27 -384 -97
-492 -187 -65 -54 -126 -144 -154 -227 -30 -89 -35 -267 -10 -360 69 -258 302
-425 582 -419 204 4 357 57 541 186 l78 55 0 -96 0 -96 150 0 150 0 0 663 c-1
627 -2 668 -20 747 -40 163 -125 274 -267 347 -67 35 -111 49 -243 79 -28 7
-396 15 -401 9z m631 -1155 l0 -250 -47 -34 c-78 -57 -233 -133 -313 -154 -99
-26 -269 -25 -353 2 -72 23 -148 89 -172 148 -11 27 -19 75 -21 130 -2 77 1
93 26 145 28 60 56 89 126 134 66 43 205 82 331 94 32 3 72 8 88 10 17 2 73 7
125 11 52 3 96 7 97 8 1 0 27 2 57 4 l56 2 0 -250z"/>
</g>
</svg>
